<?xml version="1.0" standalone="no"?>
<!DOCTYPE svg PUBLIC "-//W3C//DTD SVG 20010904//EN"
 "http://www.w3.org/TR/2001/REC-SVG-20010904/DTD/svg10.dtd">
<svg version="1.0" xmlns="http://www.w3.org/2000/svg"
 width="500.000000pt" height="500.000000pt" viewBox="0 0 500.000000 500.000000"
 preserveAspectRatio="xMidYMid meet">

<g transform="translate(0.000000,500.000000) scale(0.100000,-0.100000)"
fill="#000000" stroke="none">
<path d="M2180 3553 c-43 -13 -135 -17 -433 -20 -225 -3 -375 -8 -371 -14 3
-5 17 -9 32 -9 42 0 95 -33 114 -71 16 -31 18 -73 18 -431 l0 -398 70 0 70 0
0 70 0 71 356 -3 356 -3 29 -33 c20 -22 29 -43 29 -67 0 -19 5 -35 10 -35 6 0
10 63 10 170 0 107 -4 170 -10 170 -5 0 -10 -16 -10 -35 0 -24 -9 -45 -29 -67
l-29 -33 -356 -3 -356 -3 0 331 0 330 214 0 c117 0 227 -3 245 -6 43 -9 79
-48 83 -92 2 -19 9 -37 16 -40 9 -3 12 25 12 117 0 67 -3 121 -7 120 -5 -1
-33 -8 -63 -16z"/>
<path d="M2403 3231 c-40 -11 -82 -25 -93 -31 -36 -19 -12 -29 37 -14 75 23
179 18 240 -10 56 -27 139 -97 148 -126 3 -11 -29 -100 -80 -221 -47 -112 -85
-207 -85 -211 0 -5 22 -8 48 -8 l48 0 64 165 c35 91 65 165 68 165 8 0 61
-131 93 -227 l33 -103 73 0 c40 0 73 3 73 6 0 12 -72 207 -105 284 -68 158
-142 250 -247 305 -65 35 -82 39 -158 42 -61 2 -105 -2 -157 -16z"/>
<path d="M1210 2510 c0 -27 5 -50 10 -50 6 0 10 9 10 19 0 12 8 21 23 24 l22
4 -22 2 c-29 1 -31 31 -2 31 11 0 17 5 14 10 -3 6 -17 10 -31 10 -22 0 -24 -4
-24 -50z"/>
<path d="M1390 2513 c-11 -25 -17 -49 -14 -52 4 -3 9 0 11 7 3 6 15 12 28 12
13 0 25 -6 28 -12 2 -7 7 -10 11 -7 7 6 -29 99 -38 99 -3 0 -14 -21 -26 -47z
m34 2 c3 -8 1 -15 -4 -15 -6 0 -10 7 -10 15 0 8 2 15 4 15 2 0 6 -7 10 -15z"/>
<path d="M1607 2553 c-4 -3 -7 -21 -7 -39 0 -26 -5 -33 -22 -37 -20 -3 -21 -4
-5 -11 32 -15 47 0 47 49 0 46 -2 50 -13 38z"/>
<path d="M1740 2511 c0 -28 5 -51 10 -51 6 0 10 7 10 17 0 15 1 15 18 0 10
-10 25 -17 33 -17 10 1 8 5 -6 16 -16 12 -17 18 -8 33 14 23 5 38 -30 46 -27
7 -27 7 -27 -44z m42 14 c0 -5 -5 -11 -11 -13 -6 -2 -11 4 -11 13 0 9 5 15 11
13 6 -2 11 -8 11 -13z"/>
<path d="M2132 2524 l-19 -38 -17 32 c-23 45 -36 40 -36 -13 0 -45 19 -66 21
-22 l0 22 11 -22 c14 -30 24 -29 42 5 l15 27 1 -27 c0 -16 4 -28 10 -28 8 0 3
88 -6 98 -1 2 -11 -13 -22 -34z"/>
<path d="M2302 2544 c-39 -27 -23 -84 23 -84 12 0 26 5 33 12 19 19 15 66 -7
78 -25 13 -22 13 -49 -6z m46 -37 c3 -22 -1 -27 -18 -27 -23 0 -35 22 -26 46
10 25 41 12 44 -19z"/>
<path d="M2490 2511 c0 -28 5 -51 10 -51 6 0 10 9 10 20 0 13 7 20 20 20 13 0
20 -7 20 -20 0 -11 5 -20 10 -20 6 0 10 23 10 51 0 31 -4 48 -10 44 -5 -3 -10
-13 -10 -21 0 -8 -9 -14 -20 -14 -11 0 -20 6 -20 14 0 8 -4 18 -10 21 -6 4
-10 -13 -10 -44z"/>
<path d="M2700 2513 c-11 -25 -17 -49 -14 -52 4 -3 9 0 11 7 3 6 15 12 28 12
13 0 25 -6 28 -12 2 -7 7 -10 11 -7 7 6 -29 99 -38 99 -3 0 -14 -21 -26 -47z
m34 2 c3 -8 1 -15 -4 -15 -6 0 -10 7 -10 15 0 8 2 15 4 15 2 0 6 -7 10 -15z"/>
<path d="M2890 2541 c0 -10 -3 -33 -6 -50 -4 -20 -3 -31 5 -31 6 0 11 12 11
28 l1 27 15 -27 c18 -34 28 -35 42 -5 l11 22 0 -22 c2 -44 21 -23 21 22 0 53
-13 58 -36 13 l-17 -32 -19 37 c-21 41 -28 46 -28 18z"/>
<path d="M3182 2524 l-19 -38 -17 32 c-23 45 -36 40 -36 -13 0 -45 19 -66 21
-22 l0 22 11 -22 c14 -30 24 -29 42 5 l15 27 1 -27 c0 -16 4 -28 10 -28 8 0 3
88 -6 98 -1 2 -11 -13 -22 -34z"/>
<path d="M3340 2510 c0 -49 1 -50 30 -50 17 0 30 5 30 10 0 6 -11 10 -25 10
-14 0 -25 5 -25 10 0 6 12 10 26 10 14 0 23 4 19 10 -3 6 -15 10 -26 10 -10 0
-19 5 -19 10 0 6 12 10 26 10 14 0 23 4 19 10 -3 6 -17 10 -31 10 -22 0 -24
-4 -24 -50z"/>
<path d="M3517 2554 c-4 -4 -7 -27 -7 -51 0 -41 1 -43 29 -43 49 0 81 51 48
78 -17 15 -61 25 -70 16z m51 -23 c21 -13 10 -46 -16 -49 -19 -3 -22 1 -22 27
0 31 13 39 38 22z"/>
<path d="M1539 2277 c-3 -87 -8 -119 -22 -140 -24 -37 -59 -58 -107 -64 -22
-3 -40 -10 -40 -14 0 -5 106 -9 235 -9 150 0 235 4 235 10 0 6 -12 10 -26 10
-40 0 -94 30 -115 64 -16 26 -19 51 -19 144 l0 112 -69 0 -69 0 -3 -113z"/>
<path d="M2345 2084 c-71 -168 -141 -323 -156 -343 -28 -40 -78 -69 -135 -78
-18 -3 -34 -10 -34 -14 0 -5 97 -9 215 -9 137 0 215 4 215 10 0 6 -12 10 -26
10 -32 0 -84 50 -84 82 0 13 34 114 77 226 l78 202 290 0 290 0 54 -158 c120
-349 204 -507 345 -647 160 -160 308 -211 490 -171 98 22 102 42 6 38 -168 -8
-308 81 -449 287 -105 154 -163 285 -304 686 l-64 180 -76 3 -76 3 24 -72 c14
-40 25 -74 25 -76 0 -2 -119 -3 -265 -3 l-265 0 9 23 c5 12 18 46 30 75 l21
52 -54 0 -53 0 -128 -306z"/>
</g>
</svg>
